<?xml version="1.0" encoding="utf-8" ?>
<svg xmlns="http://www.w3.org/2000/svg" xmlns:xlink="http://www.w3.org/1999/xlink" width="1804" height="1015" >
	<path transform="matrix(0.991209 0 0 0.991211 0 0.000244141)" d="M1305.21 731.111C1308.96 731.011 1312.74 731.115 1316.5 731.141C1316.68 731.414 1316.88 731.679 1317.05 731.96C1320.26 737.139 1319.03 816.139 1317.27 824.877C1328.3 824.966 1339.5 824.369 1350.49 825.312C1351.38 825.954 1352.08 826.466 1352.58 827.463C1353.66 829.576 1353.67 832.124 1352.77 834.3C1351.78 836.719 1351.04 836.73 1348.75 837.778C1339.38 840.517 1312.67 838.296 1301.22 838.116C1301.28 837.973 1301.34 837.83 1301.4 837.687C1306.24 826.524 1300.17 750.239 1302.8 732L1305.21 731.111Z"/>
	<path transform="matrix(0.991209 0 0 0.991211 0 0.000244141)" d="M1098.58 731.995C1107.8 731.09 1117.32 731.538 1126.59 731.516L1173.18 731.371C1173.86 732.523 1174.22 733.56 1174.53 734.852C1175.37 738.388 1175.54 740.096 1173.6 743.215C1166.62 747.244 1153.2 744.831 1145.14 744.76L1145.95 746.005C1146.9 756.227 1149.06 805.099 1145.05 811.081C1145.62 812.066 1146.11 813.11 1146.28 814.247C1147.04 819.564 1147.51 834.024 1144.64 838.208C1141.38 838.358 1136.48 839.084 1133.44 837.949C1131.95 837.392 1130.35 836.11 1129.98 834.517C1128.81 829.488 1130.54 821.042 1130.74 815.685C1131.24 802.162 1132.83 755.571 1128.43 745.137C1119.86 745.167 1107.4 746.816 1099.26 744.413C1099.19 740.196 1100.13 736.991 1098.84 732.823L1098.58 731.995Z"/>
	<path transform="matrix(0.991209 0 0 0.991211 0 0.000244141)" d="M1436.59 730.864C1443.95 730.582 1451.36 730.703 1458.73 730.655C1458.67 731.034 1458.63 731.434 1458.49 731.797C1458.13 732.7 1423.68 771.614 1419.89 775.529C1417.65 777.856 1415.42 780.014 1412.51 781.496C1412.63 781.551 1412.75 781.599 1412.86 781.661C1418.05 784.495 1443.9 811.673 1445.61 816.444C1445.95 816.64 1446.46 816.918 1446.8 817.164C1451.39 820.536 1463.65 833.011 1464.72 838.19L1441.83 837.991C1441.57 832.308 1413.67 802.375 1408.07 796.5C1405.1 793.388 1402.1 790.156 1397.63 790.061C1392.37 797 1400.79 826.407 1394.64 837.827C1394.56 837.983 1394.46 838.133 1394.37 838.287L1378.23 838.331C1378.67 837.731 1378.74 837.682 1379.08 837.098C1380.26 835.074 1380.53 832.981 1380.69 830.688C1381.47 819.394 1380.52 807.837 1380.56 796.509C1380.63 779.001 1383.27 747.34 1379.4 731.111C1384.32 730.608 1389.48 730.875 1394.44 730.839C1395.05 731.755 1395.6 732.733 1395.83 733.823C1397.52 741.899 1398.17 771.051 1393.99 777.451C1395.67 776.695 1397.36 775.868 1398.86 774.798C1405.04 770.383 1435.37 737.508 1436.59 730.864Z"/>
	<path transform="matrix(0.991209 0 0 0.991211 0 0.000244141)" d="M1132.65 594.22C1141.29 593.543 1151.02 594.48 1159.3 597.063C1163.2 598.277 1168.66 600.248 1170.66 604.092C1171.26 605.179 1171.81 606.324 1172.08 607.547C1172.8 610.836 1173.43 616.575 1171.51 619.389C1166.72 619.038 1156.72 609.202 1143.12 608.266C1132.78 607.555 1121.75 611.117 1113.96 618.006C1105.74 625.271 1101.29 635.876 1100.78 646.736C1100.24 658.248 1104.04 669.629 1111.92 678.119Q1112.64 678.877 1113.39 679.599Q1114.14 680.321 1114.92 681.006Q1115.71 681.69 1116.53 682.335Q1117.35 682.98 1118.2 683.584Q1119.04 684.188 1119.92 684.749Q1120.8 685.311 1121.7 685.828Q1122.61 686.346 1123.54 686.819Q1124.47 687.291 1125.42 687.718Q1126.37 688.144 1127.34 688.523Q1128.31 688.903 1129.3 689.234Q1130.28 689.565 1131.29 689.847Q1132.29 690.129 1133.31 690.361Q1134.32 690.594 1135.35 690.776Q1136.37 690.958 1137.41 691.09Q1138.44 691.222 1139.48 691.303Q1140.52 691.383 1141.56 691.413C1147.28 691.631 1154.73 691.306 1159.13 687.17C1160.41 685.372 1161.08 683.385 1161.39 681.217C1162.16 675.689 1162.63 665.794 1159.14 661.089C1156.13 660.779 1152.82 661.216 1149.85 660.673C1147.63 660.264 1147.15 655.16 1145.63 653.225C1145.54 653.103 1145.43 652.987 1145.33 652.868C1145.9 651.411 1146.5 649.858 1147.77 648.87C1153.4 644.504 1168.68 646.666 1175.42 647.65C1175.85 648.529 1176.24 649.448 1176.47 650.404C1178.33 658.448 1178.56 691.064 1174.33 697.46C1170.29 701.252 1162.49 702.859 1157.19 703.729C1139.49 706.637 1121.01 704.97 1106.09 694.108C1094.14 685.401 1086.7 672.368 1084.6 657.791C1082.43 642.805 1085.79 627.14 1095.11 615.064C1104.34 603.104 1117.81 596.079 1132.65 594.22Z"/>
	<path transform="matrix(0.991209 0 0 0.991211 0 0.000244141)" d="M1220.09 731.108C1223.9 730.591 1227.21 730.748 1231.03 731.227C1231.48 731.719 1231.46 731.672 1231.94 732.311C1241.74 745.165 1250.2 772.523 1257.17 788.149C1263.67 802.745 1271.6 817.051 1277.29 831.965C1278.12 834.127 1278.53 835.841 1278.27 838.153L1261.35 838.201C1261.57 837.38 1261.74 836.845 1261.63 835.985C1260.86 829.723 1254.12 815.655 1249.03 811.505L1230.59 811.518L1202.5 811.527C1202.67 812.217 1202.73 812.3 1202.68 813.123C1202.27 819.139 1194.19 834.587 1189.43 838.248L1171.85 838.335C1171.98 838.223 1172.11 838.111 1172.24 838.001C1173.44 837.004 1174.32 836.051 1175.16 834.734C1182.79 822.689 1221.87 738.662 1220.09 731.108ZM1223.36 758.662C1225.13 762.752 1221.35 770.298 1219.77 774.3C1217.36 780.406 1212.84 793.929 1207.41 797.666L1227.03 797.546L1242.82 797.464C1244.93 791.634 1233.13 767.058 1230.23 760.89C1229.74 759.852 1229.37 759.309 1228.58 758.515C1226.76 758.405 1225.16 758.388 1223.36 758.662Z"/>
	<path transform="matrix(0.991209 0 0 0.991211 0 0.000244141)" d="M1472.49 596C1484.37 594.543 1497.86 594.739 1509.72 596.658C1525.75 599.252 1539.56 607.104 1549.01 620.535C1557.28 632.274 1559.77 646.794 1557.29 660.826C1555.16 672.89 1549.44 681.971 1539.43 688.915C1538.94 690.459 1538.55 690.958 1537.41 692.074C1522.99 706.271 1489.98 703.349 1471.37 703.061C1475.22 693.177 1472.95 633.19 1472.57 618.584C1472.39 611.765 1471 602.529 1472.49 596ZM1488.91 610.222L1487.4 611.258C1487.62 624.235 1490.58 681.188 1486.28 688.974C1497.91 689.379 1516.32 690.753 1525.66 682.401C1526.32 681.815 1526.66 681.298 1527.12 680.555C1535.5 673.814 1540.68 665.693 1541.82 654.821Q1541.92 653.803 1541.97 652.782Q1542.02 651.761 1542.01 650.739Q1542.01 649.716 1541.96 648.695Q1541.91 647.674 1541.81 646.657Q1541.71 645.64 1541.55 644.629Q1541.4 643.618 1541.2 642.615Q1541 641.613 1540.75 640.622Q1540.5 639.631 1540.2 638.653Q1539.9 637.676 1539.55 636.714Q1539.2 635.752 1538.81 634.809Q1538.42 633.866 1537.98 632.943Q1537.54 632.02 1537.05 631.12Q1536.57 630.22 1536.04 629.345Q1535.51 628.47 1534.94 627.622Q1534.37 626.774 1533.75 625.955Q1533.14 625.137 1532.49 624.349C1525.03 615.492 1513.74 610.806 1502.35 609.897C1497.9 609.542 1493.34 609.766 1488.91 610.222Z"/>
	<path transform="matrix(0.991209 0 0 0.991211 0 0.000244141)" d="M1376.87 595.999C1392.53 594.32 1409.53 596.257 1422.48 605.893C1433.72 614.251 1440.17 627.41 1442 641.112C1444.04 656.38 1440.98 671.792 1431.45 684.106C1422.75 695.331 1410.96 701.382 1397.03 703.109C1396.85 703.189 1396.68 703.282 1396.49 703.349C1387.19 706.705 1373.6 703.772 1365.01 699.666Q1363.88 699.129 1362.77 698.536Q1361.66 697.944 1360.58 697.298Q1359.51 696.651 1358.46 695.953Q1357.42 695.254 1356.41 694.505Q1355.41 693.756 1354.44 692.958Q1353.47 692.16 1352.54 691.315Q1351.61 690.471 1350.72 689.581Q1349.84 688.692 1348.99 687.76Q1348.15 686.828 1347.36 685.855Q1346.56 684.883 1345.82 683.872Q1345.07 682.862 1344.38 681.816Q1343.68 680.77 1343.04 679.691Q1342.4 678.612 1341.81 677.503Q1341.22 676.394 1340.69 675.257Q1340.15 674.12 1339.68 672.958Q1339.2 671.796 1338.78 670.612C1333.59 655.913 1334.48 638.124 1341.24 624.099C1348.98 608.058 1360.85 601.522 1376.87 595.999ZM1378.85 610.221C1366.72 616.239 1358.31 621.667 1353.82 635.367Q1353.48 636.423 1353.19 637.494Q1352.9 638.565 1352.66 639.649Q1352.42 640.733 1352.24 641.828Q1352.05 642.922 1351.92 644.024Q1351.79 645.126 1351.71 646.233Q1351.63 647.34 1351.61 648.45Q1351.59 649.56 1351.62 650.669Q1351.65 651.779 1351.73 652.885Q1351.81 653.992 1351.95 655.093Q1352.09 656.194 1352.28 657.288Q1352.47 658.381 1352.72 659.464Q1352.96 660.546 1353.26 661.616Q1353.55 662.686 1353.9 663.739Q1354.25 664.793 1354.65 665.829Q1355.05 666.865 1355.49 667.88Q1355.94 668.895 1356.44 669.887C1360.84 678.511 1368.72 686.12 1378.1 688.995C1383.6 690.68 1390.18 690.983 1395.72 689.335C1404.87 687.978 1412.84 683.897 1418.5 676.41C1425.51 667.129 1427.68 654.302 1425.87 642.979C1424.21 632.535 1419.02 622.524 1410.37 616.224C1400.85 609.297 1390.15 608.607 1378.85 610.221Z"/>
	<path transform="matrix(0.991209 0 0 0.991211 0 0.000244141)" d="M1247 595.998C1262.5 594.138 1277.39 595.95 1290.47 605.135C1302 613.23 1308.9 625.328 1311.26 639.11C1313.83 654.161 1311.77 670.71 1302.71 683.327C1293.95 695.517 1281 701.381 1266.55 703.735C1255.52 705.685 1242.89 704.141 1232.83 699.318Q1231.68 698.771 1230.56 698.167Q1229.44 697.563 1228.35 696.905Q1227.26 696.246 1226.21 695.535Q1225.15 694.823 1224.13 694.06Q1223.11 693.297 1222.13 692.485Q1221.15 691.673 1220.22 690.813Q1219.28 689.953 1218.38 689.047Q1217.49 688.142 1216.64 687.194Q1215.79 686.245 1214.99 685.256Q1214.19 684.266 1213.44 683.238Q1212.69 682.211 1211.99 681.147Q1211.29 680.083 1210.64 678.986Q1210 677.889 1209.41 676.761Q1208.82 675.634 1208.28 674.478Q1207.75 673.323 1207.27 672.142Q1206.8 670.962 1206.38 669.759C1201.5 655.397 1202.88 638.689 1209.71 625.185C1217.96 608.879 1230.32 601.574 1247 595.998ZM1249.06 610.221C1236.45 616.334 1227.81 621.747 1223.07 635.685C1219.27 646.854 1219.94 659.835 1225.29 670.392C1229.55 678.814 1236.92 685.845 1246 688.764C1251.57 690.555 1260.55 691.141 1266.21 689.336C1274.92 688.059 1283.46 682.584 1288.63 675.497C1295.27 666.383 1297.42 654.22 1295.67 643.202C1293.96 632.429 1288.14 622.266 1279.15 615.963C1269.64 609.3 1260.1 609.225 1249.06 610.221Z"/>
	<path transform="matrix(0.991209 0 0 0.991211 0 0.000244141)" d="M739.055 168.785C739.375 169.257 739.853 169.655 740.016 170.201C741.501 175.149 739.999 285.021 740.015 299.723L740.177 659.149C740.209 723.879 739.524 788.711 740.586 853.43C734.006 848.756 727.522 843.901 721.814 838.167C713.538 829.854 707.727 820.451 705.161 808.903C698.97 781.037 702.339 743.795 702.449 714.7L702.667 568.035L663.995 568.024C663.608 594.589 664.03 621.21 664.07 647.781C664.096 665.401 664.813 683.356 662.046 700.811C656.112 738.256 636.271 775.499 609.583 802.269C561.506 850.495 498.787 874.243 431.081 874.257Q427.827 874.285 424.574 874.232Q421.32 874.179 418.069 874.046Q414.818 873.912 411.571 873.698Q408.324 873.483 405.084 873.188Q401.843 872.893 398.611 872.518Q395.379 872.143 392.157 871.688Q388.935 871.232 385.726 870.697Q382.516 870.162 379.321 869.547Q376.125 868.932 372.946 868.238Q369.767 867.544 366.606 866.772Q363.446 865.999 360.305 865.148Q357.164 864.297 354.046 863.369Q350.927 862.44 347.832 861.434Q344.738 860.429 341.669 859.346Q338.6 858.264 335.559 857.106Q332.518 855.948 329.507 854.715Q326.496 853.481 323.516 852.174Q320.536 850.866 317.59 849.485Q314.644 848.104 311.733 846.65Q308.821 845.196 305.947 843.67Q303.073 842.144 300.238 840.547Q297.402 838.951 294.607 837.284Q291.812 835.618 289.06 833.882Q286.307 832.147 283.598 830.343Q280.889 828.54 278.226 826.67Q275.563 824.8 272.947 822.865Q270.331 820.929 267.764 818.929Q265.197 816.929 262.68 814.866Q260.163 812.803 257.699 810.678Q255.234 808.553 252.823 806.368Q250.411 804.183 248.055 801.938Q245.699 799.693 243.399 797.391Q241.023 794.979 238.707 792.51Q236.391 790.041 234.136 787.516Q231.881 784.991 229.688 782.411Q227.496 779.832 225.367 777.199Q223.238 774.567 221.174 771.883Q219.11 769.199 217.113 766.466Q215.115 763.732 213.185 760.951Q211.255 758.169 209.394 755.341Q207.532 752.513 205.741 749.641Q203.949 746.768 202.228 743.853Q200.507 740.937 198.858 737.98Q197.209 735.023 195.633 732.027Q194.056 729.031 192.554 725.997Q191.051 722.963 189.624 719.893Q188.196 716.823 186.843 713.719Q185.491 710.615 184.215 707.479Q182.939 704.343 181.74 701.177Q180.541 698.01 179.42 694.815Q178.299 691.621 177.257 688.4Q176.214 685.178 175.251 681.932Q174.287 678.687 173.403 675.418Q172.52 672.15 171.716 668.861Q170.912 665.572 170.189 662.264Q169.467 658.956 168.825 655.632Q168.183 652.308 167.623 648.968Q167.063 645.629 166.584 642.277Q166.106 638.926 165.71 635.563Q165.313 632.201 164.999 628.829Q164.686 625.458 164.454 622.08Q164.223 618.702 164.074 615.32Q163.926 611.937 163.86 608.552Q163.794 605.167 163.811 601.781C164.13 527.563 190.959 461.042 243.858 408.787Q245.66 407.028 247.497 405.307Q249.334 403.585 251.207 401.902Q253.079 400.218 254.985 398.573Q256.891 396.928 258.831 395.323Q260.77 393.717 262.742 392.152Q264.714 390.586 266.718 389.062Q268.722 387.537 270.756 386.054Q272.79 384.57 274.855 383.129Q276.919 381.688 279.013 380.289Q281.106 378.89 283.228 377.535Q285.349 376.179 287.498 374.867Q289.647 373.555 291.822 372.288Q293.998 371.02 296.199 369.797Q298.399 368.574 300.625 367.397Q302.85 366.22 305.099 365.088Q307.348 363.956 309.62 362.871Q311.892 361.786 314.185 360.747Q316.479 359.709 318.793 358.717Q321.107 357.726 323.441 356.782Q325.775 355.838 328.128 354.943Q330.481 354.047 332.852 353.199Q335.222 352.352 337.61 351.553Q339.997 350.755 342.401 350.005Q344.804 349.255 347.223 348.555Q349.641 347.855 352.073 347.204Q354.505 346.554 356.95 345.953Q359.395 345.353 361.852 344.802Q364.308 344.252 366.776 343.752Q369.243 343.252 371.72 342.803Q374.197 342.353 376.683 341.955Q379.169 341.556 381.662 341.209Q384.156 340.861 386.656 340.565C413.443 337.655 440.668 338.681 467.571 338.836C503.106 339.9 546.197 343.804 579.438 329.096C612.718 314.371 626.287 290.335 638.699 258.124C642.307 268.785 643.644 279.598 643.408 290.828C642.836 318.073 634.017 342.546 616.783 363.671C599.528 384.823 573.962 400.287 547.427 406.42C529.206 410.631 510.271 409.893 491.699 409.861L426.155 409.583C396.448 409.282 366.342 407.769 337.232 414.892C305.948 422.548 277.951 438.885 254.85 461.21Q253.006 462.969 251.205 464.774Q249.405 466.578 247.65 468.427Q245.895 470.276 244.187 472.167Q242.478 474.059 240.817 475.992Q239.156 477.926 237.543 479.9Q235.931 481.874 234.368 483.888Q232.805 485.901 231.292 487.953Q229.779 490.005 228.318 492.093Q226.857 494.182 225.447 496.306Q224.038 498.43 222.682 500.589Q221.327 502.747 220.025 504.939Q218.723 507.13 217.475 509.354Q216.228 511.577 215.036 513.83Q213.845 516.083 212.709 518.366Q211.574 520.648 210.495 522.958Q209.417 525.268 208.396 527.604Q207.375 529.939 206.413 532.3Q205.45 534.66 204.546 537.044Q203.643 539.428 202.798 541.833Q201.954 544.238 201.17 546.664Q200.385 549.089 199.661 551.534Q198.937 553.978 198.274 556.439Q197.611 558.901 197.009 561.378Q196.407 563.855 195.867 566.346Q195.327 568.838 194.849 571.342Q194.37 573.846 193.954 576.361Q193.538 578.876 193.185 581.401Q192.831 583.925 192.541 586.458Q192.25 588.99 192.022 591.53Q191.794 594.069 191.629 596.613Q191.465 599.156 191.363 601.704Q191.261 604.251 191.223 606.8C190.422 660.792 213.61 717.237 251.284 755.765C290.669 796.042 343.582 820.575 400.295 821.034C442.898 821.38 486.648 805.733 517.164 775.496C557.246 735.781 558.257 695.902 558.586 642.586L559.037 567.649C521.886 566.787 484.595 567.299 447.43 567.275C452.428 552.479 460.001 538.947 471.071 527.842Q473.114 525.763 475.291 523.827Q477.469 521.89 479.772 520.105Q482.076 518.319 484.494 516.693Q486.912 515.067 489.434 513.607Q491.956 512.147 494.57 510.86Q497.185 509.573 499.88 508.466Q502.575 507.358 505.339 506.434Q508.102 505.51 510.922 504.774C534.394 498.775 559.684 501.621 583.662 501.489L702.315 501.317L702.378 324.304C702.357 294.445 699.961 251.556 704.452 223.091C708.186 199.425 719.996 182.712 739.055 168.785Z"/>
	<path transform="matrix(0.991209 0 0 0.991211 0 0.000244141)" d="M815.51 113.653C818.163 113.656 820.477 113.428 822.718 115.099C827.355 120.712 825.019 131.869 824.686 138.69C862.896 138.801 900.346 140.923 935.06 158.626C980.923 182.016 1005.44 221.764 1020.86 269.335C1078.06 270.434 1130.06 261.914 1174.58 306.042C1203.96 335.164 1218.37 373.668 1218.38 414.762C1218.38 456.323 1202.95 495.609 1173.42 525.078C1124.62 573.781 1069.67 568.084 1006.76 567.98L901.78 567.885L824.241 567.661C823.466 589.145 824.334 610.898 824.415 632.404L824.626 791.124C824.537 817.397 825.274 844.309 823.942 870.532C823.759 874.121 823.702 878.623 820.86 881.216C818.695 881.164 818.668 881.075 817.038 879.627C815.605 876.681 815.367 873.254 815.274 870.023C814.727 850.906 815.681 831.543 815.731 812.391L815.926 679.999L815.965 374.701C816.167 287.738 817.066 200.601 815.51 113.653ZM824.795 144.691L824.662 372.365C824.663 415.162 823.627 458.231 824.737 500.997C838.234 501.047 909.553 502.836 916.136 500.306C918.179 487.41 916.87 473.533 916.684 460.497Q916.453 434.709 916.554 408.919L916.785 300.834C916.892 276.838 918.4 251.987 915.121 228.164C912.83 211.521 907.938 195.738 898 182.025C884.155 162.92 863.483 149.292 840.064 145.615C835.041 144.827 829.871 144.636 824.795 144.691ZM1022.59 276.476C1022.01 291.388 1024.8 306.258 1024.81 321.199L1024.76 484.34C1024.81 508.842 1026.68 534.442 1023.55 558.752C1048.28 558.08 1078.62 556.363 1096.92 537.062C1099.2 534.649 1102.92 530.769 1103.2 527.318C1116.71 519.833 1124.97 495.361 1129 481.261C1142.79 433.128 1141.81 370.017 1116.88 325.502C1104.56 303.501 1085.58 287.272 1061.13 280.38C1048.46 276.808 1035.67 276.542 1022.59 276.476Z"/>
</svg>
